<?xml version="1.0" encoding="utf-8"?>
<!-- Generator: Adobe Illustrator 27.5.0, SVG Export Plug-In . SVG Version: 6.00 Build 0)  -->
<!DOCTYPE svg PUBLIC "-//W3C//DTD SVG 1.1//EN" "http://www.w3.org/Graphics/SVG/1.1/DTD/svg11.dtd" [
	<!ENTITY ns_extend "http://ns.adobe.com/Extensibility/1.0/">
	<!ENTITY ns_ai "http://ns.adobe.com/AdobeIllustrator/10.0/">
	<!ENTITY ns_graphs "http://ns.adobe.com/Graphs/1.0/">
	<!ENTITY ns_vars "http://ns.adobe.com/Variables/1.0/">
	<!ENTITY ns_imrep "http://ns.adobe.com/ImageReplacement/1.0/">
	<!ENTITY ns_sfw "http://ns.adobe.com/SaveForWeb/1.0/">
	<!ENTITY ns_custom "http://ns.adobe.com/GenericCustomNamespace/1.0/">
	<!ENTITY ns_adobe_xpath "http://ns.adobe.com/XPath/1.0/">
]>
<svg version="1.1" id="Слой_3" xmlns:x="&ns_extend;" xmlns:i="&ns_ai;" xmlns:graph="&ns_graphs;"
	 xmlns="http://www.w3.org/2000/svg" xmlns:xlink="http://www.w3.org/1999/xlink" x="0px" y="0px" viewBox="0 0 368.5 84.3"
	 style="enable-background:new 0 0 368.5 84.3;" xml:space="preserve">
<style type="text/css">
	.st0{fill:#100F13;}
</style>
<metadata>
	<sfw  xmlns="&ns_sfw;">
		<slices></slices>
		<sliceSourceBounds  bottomLeftOrigin="true" height="84.3" width="368.5" x="236.7" y="-819.9"></sliceSourceBounds>
	</sfw>
</metadata>
<g>
	<g>
		<path class="st0" d="M21.7,47.2L0,84.3h23c4.4,0,8.4-2.3,10.6-6.1l21.7-37.2h-23C28,41.1,23.9,43.4,21.7,47.2z"/>
		<path class="st0" d="M127,73.1l-9.4-20.7c-2.9-6.5-9.4-10.6-16.5-10.6H94L81.4,14.1C77.5,5.5,68.9,0,59.4,0h-7.2H36.6H8.8
			l10.4,22.8c2,4.4,6.4,7.2,11.2,7.2h30.2c6.2,0,10,6.7,6.9,12l-4.5,7.8c-1.3,2.2-1.4,4.8-0.4,7.1l9.2,20.3c2,4.4,6.4,7.2,11.2,7.2
			h11.4h19h6.5C125.5,84.3,129.4,78.4,127,73.1z"/>
	</g>
	<g>
		<g>
			<path class="st0" d="M218.8,2.2c-2.2,0-4,0.8-5.6,2.4c-1.6,1.6-2.3,3.5-2.3,5.6c0,2.1,0.8,4,2.4,5.6c1.6,1.6,3.4,2.4,5.6,2.4
				c2.2,0,4.1-0.8,5.7-2.4c1.6-1.6,2.4-3.4,2.4-5.6c0-2.1-0.8-4-2.3-5.6C222.9,3.1,221,2.2,218.8,2.2z"/>
			<rect x="212" y="20.2" class="st0" width="13.5" height="44"/>
			<polygon class="st0" points="254.7,46 245.8,20.2 231,20.2 247.7,64.2 261.8,64.2 278.5,20.2 263.7,20.2 			"/>
			<path class="st0" d="M367.1,44.6L367.1,44.6c-0.9-1.8-2.3-3.3-3.9-4.4c-1.5-1-3.1-1.8-4.6-2.4c-1.5-0.5-3.1-1-4.9-1.4
				c-6.3-1.6-6.4-3-6.4-3.1c0-0.3,0.1-0.8,0.7-1.2c0.7-0.5,1.5-0.7,2.6-0.7c2.5,0,4.2,1.1,5.2,3.3l0.7,1.4l11.7-6.4l-0.7-1.3
				c-1.7-3-4.1-5.4-7.1-7c-2.9-1.6-6.2-2.4-9.8-2.4c-4.7,0-8.8,1.3-12.1,3.8c-3.3,2.6-5,6.2-5,10.7c0,2.3,0.5,4.3,1.4,6
				c0.9,1.7,2.3,3.2,4,4.3c1.6,1,3.1,1.8,4.5,2.3c1.4,0.5,3,1,4.9,1.5c6.3,1.6,6.4,3,6.4,3.1c0,0.6,0,2.1-4.2,2.1
				c-3.5,0-5.6-1.4-6.7-4.4l-0.6-1.6l-11.9,6.7l0.6,1.2c3.3,7,9.6,10.6,18.6,10.6c4.9,0,9.2-1.2,12.6-3.6c3.6-2.6,5.4-6.3,5.4-11
				C368.5,48.5,368,46.4,367.1,44.6z"/>
			<path class="st0" d="M312.8,41.7c0,3.7-0.8,6.5-2.4,8.4c-1.5,1.8-3.7,2.7-6.3,2.7c-2.3,0-4.1-0.7-5.3-2.2c-1.3-1.5-1.9-4-1.9-7.4
				V20.2h-13.1v24.2c0,6.9,1.7,12.2,5,15.7c3.4,3.6,8,5.4,13.8,5.4c2.7,0,5.3-0.5,7.6-1.6c0.9-0.4,1.7-0.8,2.5-1.4
				c-0.3,2.7-1,4.7-2.2,6.1c-1.5,1.7-4,2.5-7.4,2.5c-2.4,0-4.7-0.4-6.8-1.2c-2.1-0.8-4-1.9-5.4-3.3l-1.9-1.7l-6,11.2l1.1,1
				c2.3,2.2,5.3,3.9,8.8,5c3.4,1.1,7.1,1.7,10.8,1.7c14.5,0,22.2-8.6,22.2-24.8V20.2h-13.1V41.7z"/>
		</g>
		<path class="st0" d="M170.2,3.8L149,64.2h15.4l3.5-10.3h20.8l3.4,10.3h15.4L186.3,3.8H170.2z M184.1,40.3h-11.7l5.8-17.4
			L184.1,40.3z"/>
	</g>
</g>
</svg>
